<?xml version="1.0" encoding="UTF-8" standalone="no"?>
<!-- Created with Inkscape (http://www.inkscape.org/) -->

<svg
   xmlns:dc="http://purl.org/dc/elements/1.1/"
   xmlns:cc="http://creativecommons.org/ns#"
   xmlns:rdf="http://www.w3.org/1999/02/22-rdf-syntax-ns#"
   xmlns:svg="http://www.w3.org/2000/svg"
   xmlns="http://www.w3.org/2000/svg"
   xmlns:sodipodi="http://sodipodi.sourceforge.net/DTD/sodipodi-0.dtd"
   xmlns:inkscape="http://www.inkscape.org/namespaces/inkscape"
   width="256"
   height="256"
   viewBox="0 0 256 255.99999"
   id="svg2"
   version="1.1"
   inkscape:version="0.91 r13725"
   sodipodi:docname="logo-normal.svg">
  <defs
     id="defs4" />
  <sodipodi:namedview
     id="base"
     pagecolor="#ffffff"
     bordercolor="#666666"
     borderopacity="1.0"
     inkscape:pageopacity="0.0"
     inkscape:pageshadow="2"
     inkscape:zoom="1.979899"
     inkscape:cx="-46.498131"
     inkscape:cy="84.751354"
     inkscape:document-units="px"
     inkscape:current-layer="layer1"
     showgrid="false"
     inkscape:window-width="1920"
     inkscape:window-height="1028"
     inkscape:window-x="1912"
     inkscape:window-y="-8"
     inkscape:window-maximized="1"
     fit-margin-left="0"
     fit-margin-top="0"
     fit-margin-right="0"
     fit-margin-bottom="0"
     units="px" />
  <metadata
     id="metadata7">
    <rdf:RDF>
      <cc:Work
         rdf:about="">
        <dc:format>image/svg+xml</dc:format>
        <dc:type
           rdf:resource="http://purl.org/dc/dcmitype/StillImage" />
        <dc:title></dc:title>
      </cc:Work>
    </rdf:RDF>
  </metadata>
  <g
     inkscape:label="Calque 1"
     inkscape:groupmode="layer"
     id="layer1"
     transform="translate(-186.75383,-65.240599)">
    <rect
       style="fill:#607d8b;fill-opacity:1;stroke:none;stroke-opacity:1"
       id="rect4812"
       width="256"
       height="256"
       x="186.75383"
       y="65.240593"
       ry="38.081074" />
    <rect
       style="display:none;fill:#ffffff;fill-opacity:1;stroke:none;stroke-opacity:1"
       id="rect4215"
       width="256"
       height="256"
       x="186.75383"
       y="65.240593"
       ry="32.324879"
       rx="0" />
    <path
       style="fill:#ffffff;fill-opacity:1;fill-rule:evenodd;stroke:none;stroke-width:1px;stroke-linecap:butt;stroke-linejoin:miter;stroke-opacity:1"
       d="M 106.62305 93.580078 L 106.62305 154.2207 C 106.62305 157.26051 104.17653 159.70898 101.13672 159.70898 L 93.564453 159.70898 L 93.564453 197.19336 C 93.564453 199.39283 95.335681 201.16406 97.535156 201.16406 L 105.67969 201.16406 L 105.67969 167.71484 C 105.67969 164.78118 108.04094 162.41992 110.97461 162.41992 L 123.70508 162.41992 L 123.70508 132.31055 L 120.35352 132.31055 C 117.41985 132.31055 115.05859 129.94734 115.05859 127.01367 L 115.05859 93.580078 L 106.62305 93.580078 z "
       transform="translate(186.75383,65.240591)"
       id="rect3370-8-9-7" />
    <path
       style="fill:#ffffff;fill-opacity:1;fill-rule:evenodd;stroke:none;stroke-width:1px;stroke-linecap:butt;stroke-linejoin:miter;stroke-opacity:1"
       d="M 67.839844 54.835938 L 67.839844 154.2207 C 67.839844 157.26051 65.393325 159.70898 62.353516 159.70898 L 54.783203 159.70898 L 54.783203 197.19336 C 54.783203 199.39283 56.552478 201.16406 58.751953 201.16406 L 80.953125 201.16406 C 83.1526 201.16406 84.923828 199.39283 84.923828 197.19336 L 84.923828 159.70898 L 77.351562 159.70898 C 74.311753 159.70898 71.865234 157.26051 71.865234 154.2207 L 71.865234 54.835938 L 67.839844 54.835938 z "
       transform="translate(186.75383,65.240591)"
       id="rect3370-8-9-4" />
    <path
       style="fill:#ffffff;fill-opacity:1;fill-rule:evenodd;stroke:none;stroke-width:1px;stroke-linecap:butt;stroke-linejoin:miter;stroke-opacity:1"
       d="M 19.970703 54.835938 C 17.771228 54.835938 16 56.605212 16 58.804688 L 16 197.19336 C 16 199.39283 17.771228 201.16406 19.970703 201.16406 L 42.169922 201.16406 C 44.369397 201.16406 46.140625 199.39283 46.140625 197.19336 L 46.140625 159.70898 L 38.570312 159.70898 C 35.530503 159.70898 33.082031 157.26051 33.082031 154.2207 L 33.082031 54.835938 L 19.970703 54.835938 z "
       transform="translate(186.75383,65.240591)"
       id="rect3370-8-9-1" />
    <rect
       style="fill:#ffffff;fill-opacity:1;fill-rule:evenodd;stroke:none;stroke-width:1px;stroke-linecap:butt;stroke-linejoin:miter;stroke-opacity:1"
       id="rect3370-9"
       width="30.14065"
       height="30.14065"
       x="329.43277"
       y="120.07561"
       ry="3.3708806" />
    <rect
       style="fill:#ffffff;fill-opacity:1;fill-rule:evenodd;stroke:none;stroke-width:1px;stroke-linecap:butt;stroke-linejoin:miter;stroke-opacity:1"
       id="rect3370-93"
       width="30.14065"
       height="30.14065"
       x="368.21719"
       y="120.07561"
       ry="3.3708806" />
    <rect
       style="fill:#ffffff;fill-opacity:1;fill-rule:evenodd;stroke:none;stroke-width:1px;stroke-linecap:butt;stroke-linejoin:miter;stroke-opacity:1"
       id="rect3370-3"
       width="30.14065"
       height="30.14065"
       x="310.41675"
       y="158.80539"
       ry="3.3708806" />
    <rect
       style="fill:#ff6e40;fill-opacity:1;fill-rule:evenodd;stroke:none;stroke-width:1px;stroke-linecap:butt;stroke-linejoin:miter;stroke-opacity:1"
       id="rect3370-9-7"
       width="30.14065"
       height="30.14065"
       x="349.20123"
       y="158.80539"
       ry="3.3708806" />
    <rect
       style="fill:#ffffff;fill-opacity:1;fill-rule:evenodd;stroke:none;stroke-width:1px;stroke-linecap:butt;stroke-linejoin:miter;stroke-opacity:1"
       id="rect3370-93-4"
       width="30.14065"
       height="30.14065"
       x="387.98572"
       y="158.80539"
       ry="3.3708806" />
    <rect
       style="fill:#ff6e40;fill-opacity:1;fill-rule:evenodd;stroke:none;stroke-width:1px;stroke-linecap:butt;stroke-linejoin:miter;stroke-opacity:1"
       id="rect3370-5"
       width="30.14065"
       height="30.14065"
       x="319.04425"
       y="197.53517"
       ry="3.3708806" />
    <rect
       style="fill:#ff6e40;fill-opacity:1;fill-rule:evenodd;stroke:none;stroke-width:1px;stroke-linecap:butt;stroke-linejoin:miter;stroke-opacity:1"
       id="rect3370-9-4"
       width="30.14065"
       height="30.14065"
       x="357.8287"
       y="197.53517"
       ry="3.3708806" />
    <rect
       style="fill:#ff6e40;fill-opacity:1;fill-rule:evenodd;stroke:none;stroke-width:1px;stroke-linecap:butt;stroke-linejoin:miter;stroke-opacity:1"
       id="rect3370-93-2"
       width="30.14065"
       height="30.14065"
       x="396.61319"
       y="197.53517"
       ry="3.3708806" />
    <rect
       style="fill:#ffffff;fill-opacity:1;fill-rule:evenodd;stroke:none;stroke-width:1px;stroke-linecap:butt;stroke-linejoin:miter;stroke-opacity:1"
       id="rect3370-8"
       width="30.14065"
       height="30.14065"
       x="301.03793"
       y="236.26494"
       ry="3.3708806" />
    <rect
       style="fill:#ffffff;fill-opacity:1;fill-rule:evenodd;stroke:none;stroke-width:1px;stroke-linecap:butt;stroke-linejoin:miter;stroke-opacity:1"
       id="rect3370-9-9"
       width="30.14065"
       height="30.14065"
       x="339.82239"
       y="236.26494"
       ry="3.3708806" />
    <rect
       style="fill:#ffffff;fill-opacity:1;fill-rule:evenodd;stroke:none;stroke-width:1px;stroke-linecap:butt;stroke-linejoin:miter;stroke-opacity:1"
       id="rect3370-93-0"
       width="30.14065"
       height="30.14065"
       x="378.60687"
       y="236.26494"
       ry="3.3708806" />
    <path
       id="rect3370-8-9-1-9"
       style="fill:#ff6e40;fill-opacity:1;fill-rule:evenodd;stroke:none;stroke-width:1px;stroke-linecap:butt;stroke-linejoin:miter;stroke-opacity:1"
       d="m 230.81432,120.07562 12.80223,0 c 1.32313,0 2.38829,1.1688 2.38829,2.6206 l 0,91.3469 c 0,1.45181 -1.06516,2.62062 -2.38829,2.62062 l -12.80223,0 c -1.32312,0 -2.3883,-1.16881 -2.3883,-2.62062 l 0,-91.3469 c 0,-1.4518 1.06518,-2.6206 2.3883,-2.6206 z"
       inkscape:connector-curvature="0" />
    <path
       style="fill:#ff6e40;fill-opacity:1;fill-rule:evenodd;stroke:none;stroke-width:1px;stroke-linecap:butt;stroke-linejoin:miter;stroke-opacity:1"
       d="M 82.84375 54.835938 C 81.52063 54.835938 80.455078 56.003278 80.455078 57.455078 L 80.455078 148.80273 C 80.455078 150.25454 81.52063 151.42383 82.84375 151.42383 L 95.644531 151.42383 C 96.967651 151.42383 98.033203 150.25454 98.033203 148.80273 L 98.033203 92.984375 C 96.337015 92.103762 95.181641 90.335467 95.181641 88.285156 L 95.181641 54.835938 L 82.84375 54.835938 z "
       transform="translate(186.75383,65.240591)"
       id="rect3370-8-9-1-9-4" />
    <rect
       style="fill:#ffffff;fill-opacity:1;fill-rule:evenodd;stroke:none;stroke-width:1px;stroke-linecap:butt;stroke-linejoin:miter;stroke-opacity:1"
       id="rect3370"
       width="30.14065"
       height="30.14065"
       x="290.54016"
       y="120.07561"
       ry="3.3708806" />
  </g>
</svg>
